<svg width="25" height="22" viewBox="0 0 25 22" fill="none" xmlns="http://www.w3.org/2000/svg">
<path fill-rule="evenodd" clip-rule="evenodd" d="M1.50275 4.24048H3.34283C3.58158 5.53546 4.71073 6.47546 6.02753 6.47546C7.34434 6.47546 8.47348 5.53546 8.71224 4.24048H23.6239C23.9016 4.24048 24.1267 4.01539 24.1267 3.73773C24.1267 3.46007 23.9016 3.23497 23.6239 3.23497H8.71224C8.47348 1.93999 7.34434 1 6.02753 1C4.71073 1 3.58158 1.93999 3.34283 3.23497H1.50275C1.22509 3.23497 1 3.46007 1 3.73773C1 4.01539 1.22509 4.24048 1.50275 4.24048ZM21.7838 10.4998H23.6239C23.9016 10.4998 24.1267 10.7249 24.1267 11.0025C24.1267 11.2802 23.9016 11.5053 23.6239 11.5053H21.7838C21.5451 12.8002 20.4159 13.7402 19.0991 13.7402C17.7823 13.7402 16.6532 12.8002 16.4144 11.5053H1.50275C1.22509 11.5053 1 11.2802 1 11.0025C1 10.7249 1.22509 10.4998 1.50275 10.4998H16.4144C16.6532 9.20478 17.7823 8.26479 19.0991 8.26479C20.4159 8.26479 21.5451 9.20478 21.7838 10.4998ZM17.3696 11.0025C17.3696 11.9577 18.144 12.732 19.0991 12.732C19.5578 12.732 19.9977 12.5498 20.322 12.2254C20.6464 11.9011 20.8286 11.4612 20.8286 11.0025C20.8286 10.0474 20.0543 9.27304 19.0991 9.27304C18.144 9.27304 17.3696 10.0474 17.3696 11.0025ZM23.6239 17.7595H15.248C15.0093 16.4645 13.8801 15.5245 12.5633 15.5245C11.2465 15.5245 10.1174 16.4645 9.87862 17.7595H1.50275C1.22509 17.7595 1 17.9846 1 18.2623C1 18.5399 1.22509 18.765 1.50275 18.765H9.87862C10.1174 20.06 11.2465 21 12.5633 21C13.8801 21 15.0093 20.06 15.248 18.765H23.6239C23.9016 18.765 24.1267 18.5399 24.1267 18.2623C24.1267 17.9846 23.9016 17.7595 23.6239 17.7595ZM10.8339 18.2673C10.8339 19.2225 11.6082 19.9968 12.5633 19.9968C13.022 19.9968 13.4619 19.8146 13.7862 19.4902C14.1106 19.1659 14.2928 18.726 14.2928 18.2673C14.2928 17.3121 13.5185 16.5378 12.5633 16.5378C11.6082 16.5378 10.8339 17.3121 10.8339 18.2673ZM6.02753 5.4672C6.98269 5.4672 7.757 4.69289 7.757 3.73773C7.757 2.78257 6.98269 2.00826 6.02753 2.00826C5.56885 2.00826 5.12895 2.19047 4.80461 2.51481C4.48027 2.83915 4.29806 3.27904 4.29806 3.73773C4.29806 4.69289 5.07237 5.4672 6.02753 5.4672Z" fill="#6F6F6F"/>
<path d="M3.34283 4.24048L3.44117 4.22235L3.42608 4.14048H3.34283V4.24048ZM8.71224 4.24048V4.14048H8.62899L8.61389 4.22235L8.71224 4.24048ZM8.71224 3.23497L8.61389 3.25311L8.62899 3.33497H8.71224V3.23497ZM3.34283 3.23497V3.33497H3.42608L3.44117 3.25311L3.34283 3.23497ZM21.7838 10.4998L21.6855 10.5179L21.7006 10.5998H21.7838V10.4998ZM21.7838 11.5053V11.4053H21.7006L21.6855 11.4871L21.7838 11.5053ZM16.4144 11.5053L16.5128 11.4871L16.4977 11.4053H16.4144V11.5053ZM16.4144 10.4998V10.5998H16.4977L16.5128 10.5179L16.4144 10.4998ZM19.0991 12.732V12.632V12.732ZM15.248 17.7595L15.1497 17.7776L15.1648 17.8595H15.248V17.7595ZM9.87862 17.7595V17.8595H9.96187L9.97697 17.7776L9.87862 17.7595ZM9.87862 18.765L9.97697 18.7469L9.96187 18.665H9.87862V18.765ZM15.248 18.765V18.665H15.1648L15.1497 18.7469L15.248 18.765ZM4.80461 2.51481L4.87532 2.58552L4.80461 2.51481ZM3.34283 4.14048H1.50275V4.34048H3.34283V4.14048ZM6.02753 6.37546C4.75896 6.37546 3.67118 5.4699 3.44117 4.22235L3.24449 4.25861C3.49199 5.60103 4.66249 6.57546 6.02753 6.57546V6.37546ZM8.61389 4.22235C8.38389 5.4699 7.2961 6.37546 6.02753 6.37546V6.57546C7.39258 6.57546 8.56308 5.60103 8.81058 4.25861L8.61389 4.22235ZM23.6239 4.14048H8.71224V4.34048H23.6239V4.14048ZM24.0267 3.73773C24.0267 3.96016 23.8463 4.14048 23.6239 4.14048V4.34048C23.9568 4.34048 24.2267 4.07062 24.2267 3.73773H24.0267ZM23.6239 3.33497C23.8463 3.33497 24.0267 3.51529 24.0267 3.73773H24.2267C24.2267 3.40484 23.9568 3.13497 23.6239 3.13497V3.33497ZM8.71224 3.33497H23.6239V3.13497H8.71224V3.33497ZM6.02753 1.1C7.2961 1.1 8.38389 2.00556 8.61389 3.25311L8.81058 3.21684C8.56308 1.87443 7.39258 0.9 6.02753 0.9V1.1ZM3.44117 3.25311C3.67118 2.00556 4.75896 1.1 6.02753 1.1V0.9C4.66249 0.9 3.49199 1.87443 3.24449 3.21684L3.44117 3.25311ZM1.50275 3.33497H3.34283V3.13497H1.50275V3.33497ZM1.1 3.73773C1.1 3.51529 1.28032 3.33497 1.50275 3.33497V3.13497C1.16986 3.13497 0.9 3.40484 0.9 3.73773H1.1ZM1.50275 4.14048C1.28032 4.14048 1.1 3.96016 1.1 3.73773H0.9C0.9 4.07062 1.16986 4.34048 1.50275 4.34048V4.14048ZM23.6239 10.3998H21.7838V10.5998H23.6239V10.3998ZM24.2267 11.0025C24.2267 10.6696 23.9568 10.3998 23.6239 10.3998V10.5998C23.8463 10.5998 24.0267 10.7801 24.0267 11.0025H24.2267ZM23.6239 11.6053C23.9568 11.6053 24.2267 11.3354 24.2267 11.0025H24.0267C24.0267 11.2249 23.8463 11.4053 23.6239 11.4053V11.6053ZM21.7838 11.6053H23.6239V11.4053H21.7838V11.6053ZM19.0991 13.8402C20.4642 13.8402 21.6347 12.8658 21.8822 11.5234L21.6855 11.4871C21.4555 12.7347 20.3677 13.6402 19.0991 13.6402V13.8402ZM16.3161 11.5234C16.5636 12.8658 17.7341 13.8402 19.0991 13.8402V13.6402C17.8305 13.6402 16.7428 12.7347 16.5128 11.4871L16.3161 11.5234ZM1.50275 11.6053H16.4144V11.4053H1.50275V11.6053ZM0.9 11.0025C0.9 11.3354 1.16986 11.6053 1.50275 11.6053V11.4053C1.28032 11.4053 1.1 11.2249 1.1 11.0025H0.9ZM1.50275 10.3998C1.16986 10.3998 0.9 10.6696 0.9 11.0025H1.1C1.1 10.7801 1.28032 10.5998 1.50275 10.5998V10.3998ZM16.4144 10.3998H1.50275V10.5998H16.4144V10.3998ZM19.0991 8.16479C17.7341 8.16479 16.5636 9.13921 16.3161 10.4816L16.5128 10.5179C16.7428 9.27035 17.8305 8.36479 19.0991 8.36479V8.16479ZM21.8822 10.4816C21.6347 9.13921 20.4642 8.16479 19.0991 8.16479V8.36479C20.3677 8.36479 21.4555 9.27035 21.6855 10.5179L21.8822 10.4816ZM19.0991 12.632C18.1992 12.632 17.4696 11.9024 17.4696 11.0025H17.2696C17.2696 12.0129 18.0887 12.832 19.0991 12.832V12.632ZM20.2513 12.1547C19.9457 12.4603 19.5313 12.632 19.0991 12.632V12.832C19.5843 12.832 20.0497 12.6392 20.3928 12.2961L20.2513 12.1547ZM20.7286 11.0025C20.7286 11.4347 20.5569 11.8491 20.2513 12.1547L20.3928 12.2961C20.7358 11.9531 20.9286 11.4877 20.9286 11.0025H20.7286ZM19.0991 9.37304C19.9991 9.37304 20.7286 10.1026 20.7286 11.0025H20.9286C20.9286 9.99213 20.1095 9.17304 19.0991 9.17304V9.37304ZM17.4696 11.0025C17.4696 10.1026 18.1992 9.37304 19.0991 9.37304V9.17304C18.0887 9.17304 17.2696 9.99213 17.2696 11.0025H17.4696ZM15.248 17.8595H23.6239V17.6595H15.248V17.8595ZM12.5633 15.6245C13.8319 15.6245 14.9197 16.5301 15.1497 17.7776L15.3464 17.7414C15.0989 16.399 13.9284 15.4245 12.5633 15.4245V15.6245ZM9.97697 17.7776C10.207 16.5301 11.2948 15.6245 12.5633 15.6245V15.4245C11.1983 15.4245 10.0278 16.399 9.78028 17.7414L9.97697 17.7776ZM1.50275 17.8595H9.87862V17.6595H1.50275V17.8595ZM1.1 18.2623C1.1 18.0398 1.28032 17.8595 1.50275 17.8595V17.6595C1.16986 17.6595 0.9 17.9294 0.9 18.2623H1.1ZM1.50275 18.665C1.28032 18.665 1.1 18.4847 1.1 18.2623H0.9C0.9 18.5952 1.16986 18.865 1.50275 18.865V18.665ZM9.87862 18.665H1.50275V18.865H9.87862V18.665ZM12.5633 20.9C11.2948 20.9 10.207 19.9944 9.97697 18.7469L9.78028 18.7832C10.0278 20.1256 11.1983 21.1 12.5633 21.1V20.9ZM15.1497 18.7469C14.9197 19.9944 13.8319 20.9 12.5633 20.9V21.1C13.9284 21.1 15.0989 20.1256 15.3464 18.7832L15.1497 18.7469ZM23.6239 18.665H15.248V18.865H23.6239V18.665ZM24.0267 18.2623C24.0267 18.4847 23.8463 18.665 23.6239 18.665V18.865C23.9568 18.865 24.2267 18.5952 24.2267 18.2623H24.0267ZM23.6239 17.8595C23.8463 17.8595 24.0267 18.0398 24.0267 18.2623H24.2267C24.2267 17.9294 23.9568 17.6595 23.6239 17.6595V17.8595ZM12.5633 19.8968C11.6634 19.8968 10.9339 19.1672 10.9339 18.2673H10.7339C10.7339 19.2777 11.5529 20.0968 12.5633 20.0968V19.8968ZM13.7155 19.4195C13.41 19.7251 12.9955 19.8968 12.5633 19.8968V20.0968C13.0485 20.0968 13.5139 19.904 13.857 19.5609L13.7155 19.4195ZM14.1928 18.2673C14.1928 18.6995 14.0211 19.1139 13.7155 19.4195L13.857 19.5609C14.2001 19.2178 14.3928 18.7525 14.3928 18.2673H14.1928ZM12.5633 16.6378C13.4633 16.6378 14.1928 17.3674 14.1928 18.2673H14.3928C14.3928 17.2569 13.5737 16.4378 12.5633 16.4378V16.6378ZM10.9339 18.2673C10.9339 17.3674 11.6634 16.6378 12.5633 16.6378V16.4378C11.5529 16.4378 10.7339 17.2569 10.7339 18.2673H10.9339ZM7.657 3.73773C7.657 4.63766 6.92747 5.3672 6.02753 5.3672V5.5672C7.03792 5.5672 7.857 4.74812 7.857 3.73773H7.657ZM6.02753 2.10826C6.92747 2.10826 7.657 2.8378 7.657 3.73773H7.857C7.857 2.72734 7.03792 1.90826 6.02753 1.90826V2.10826ZM4.87532 2.58552C5.18091 2.27993 5.59537 2.10826 6.02753 2.10826V1.90826C5.54233 1.90826 5.07699 2.101 4.7339 2.4441L4.87532 2.58552ZM4.39806 3.73773C4.39806 3.30557 4.56974 2.8911 4.87532 2.58552L4.7339 2.4441C4.39081 2.78719 4.19806 3.25252 4.19806 3.73773H4.39806ZM6.02753 5.3672C5.1276 5.3672 4.39806 4.63766 4.39806 3.73773H4.19806C4.19806 4.74812 5.01714 5.5672 6.02753 5.5672V5.3672Z" fill="#6F6F6F"/>
</svg>
