<svg width="16" height="22" viewBox="0 0 16 22" fill="none" xmlns="http://www.w3.org/2000/svg">
<path fill-rule="evenodd" clip-rule="evenodd" d="M1.05062 14.6709C1.30378 18.9241 4.84808 20.8481 8.24049 20.8481C11.6582 20.8481 15.3291 18.7975 15.6835 14.8734C15.9617 11.6116 13.8153 8.90533 12.6498 7.43575L12.6456 7.4304L12.519 7.27851C10.924 5.30382 10.4937 3.37977 11.1772 1.4304C11.2025 1.35446 11.1772 1.25319 11.1266 1.17724C11.0506 1.10129 10.9747 1.07597 10.8734 1.10129C8.8734 1.55699 6.08859 4.54433 5.98732 7.63294C5.16313 6.50262 5.58745 4.93423 5.65074 4.70029C5.65549 4.68272 5.65821 4.67268 5.65821 4.67091C5.70884 4.54433 5.65821 4.41775 5.55694 4.36711C5.45568 4.29116 5.3291 4.31648 5.25315 4.39243C3.10125 6.4937 0.848084 11.2279 1.05062 14.6709ZM1.55695 14.6203C1.35441 11.3798 3.30378 7.4304 4.99998 5.40509C4.92403 6.26585 4.99998 7.5823 6.08859 8.46838C6.16454 8.51901 6.26581 8.54433 6.36707 8.4937C6.44302 8.44306 6.49365 8.3418 6.49365 8.24053C6.21517 5.45572 8.62024 2.4937 10.519 1.70889C10.0126 3.68357 10.519 5.60762 12.0886 7.5823L12.2152 7.7342C12.2262 7.74825 12.2373 7.76242 12.2486 7.77671C13.37 9.20366 15.4025 11.7899 15.1519 14.8228C14.8481 18.4431 11.4557 20.3418 8.24049 20.3418C5.30378 20.3418 1.81011 18.8481 1.55695 14.6203Z" fill="#6F6F6F"/>
<path d="M1.05062 14.6709L0.801047 14.6856L0.801058 14.6858L1.05062 14.6709ZM15.6835 14.8734L15.9325 14.8959L15.9326 14.8947L15.6835 14.8734ZM12.6498 7.43575L12.8457 7.2804L12.8457 7.2804L12.6498 7.43575ZM12.6456 7.4304L12.8415 7.275L12.8376 7.27036L12.6456 7.4304ZM12.519 7.27851L12.3245 7.43561L12.3269 7.43855L12.519 7.27851ZM11.1772 1.4304L11.4131 1.51314L11.4144 1.50946L11.1772 1.4304ZM11.1266 1.17724L11.3346 1.03857L11.3208 1.01797L11.3033 1.00046L11.1266 1.17724ZM10.8734 1.10129L10.929 1.3451L10.934 1.34383L10.8734 1.10129ZM5.98732 7.63294L5.78532 7.78023L6.21338 8.36728L6.23719 7.64113L5.98732 7.63294ZM5.65074 4.70029L5.89207 4.76558L5.89207 4.76557L5.65074 4.70029ZM5.65821 4.67091L5.42609 4.57806L5.40821 4.62277V4.67091H5.65821ZM5.55694 4.36711L5.40694 4.56711L5.42498 4.58064L5.44514 4.59072L5.55694 4.36711ZM5.25315 4.39243L5.42782 4.57131L5.42992 4.56921L5.25315 4.39243ZM4.99998 5.40509L5.24902 5.42706L5.31891 4.63491L4.80832 5.24457L4.99998 5.40509ZM1.55695 14.6203L1.8065 14.6053L1.80646 14.6047L1.55695 14.6203ZM6.08859 8.46838L5.93077 8.66227L5.94001 8.66979L5.94992 8.67639L6.08859 8.46838ZM6.36707 8.4937L6.47888 8.7173L6.4928 8.71034L6.50575 8.70171L6.36707 8.4937ZM6.49365 8.24053H6.74365V8.22806L6.74241 8.21566L6.49365 8.24053ZM10.519 1.70889L10.7611 1.77098L10.8852 1.28698L10.4235 1.47784L10.519 1.70889ZM12.0886 7.5823L11.8928 7.73791L11.8965 7.74235L12.0886 7.5823ZM12.2152 7.7342L12.4118 7.57968L12.4072 7.57416L12.2152 7.7342ZM12.2486 7.77671L12.4451 7.62223L12.4451 7.62222L12.2486 7.77671ZM15.1519 14.8228L15.401 14.8437L15.401 14.8434L15.1519 14.8228ZM8.24049 20.5981C6.58816 20.5981 4.90965 20.129 3.61894 19.1549C2.3345 18.1855 1.42232 16.7082 1.30017 14.6561L0.801058 14.6858C0.932072 16.8868 1.91863 18.4981 3.31774 19.554C4.71057 20.6052 6.50041 21.0981 8.24049 21.0981V20.5981ZM15.4345 14.851C15.0961 18.5978 11.5839 20.5981 8.24049 20.5981V21.0981C11.7325 21.0981 15.5621 18.9971 15.9325 14.8959L15.4345 14.851ZM12.4539 7.5911C13.6286 9.07225 15.703 11.7031 15.4344 14.8522L15.9326 14.8947C16.2204 11.52 14.002 8.7384 12.8457 7.2804L12.4539 7.5911ZM12.4497 7.58576L12.4539 7.5911L12.8457 7.2804L12.8414 7.27505L12.4497 7.58576ZM12.3269 7.43855L12.4535 7.59045L12.8376 7.27036L12.711 7.11846L12.3269 7.43855ZM10.9413 1.34768C10.2227 3.39697 10.6885 5.41005 12.3245 7.43559L12.7135 7.12142C11.1596 5.1976 10.7646 3.36258 11.4131 1.51313L10.9413 1.34768ZM10.9186 1.31591C10.927 1.32856 10.9332 1.34373 10.9359 1.35621C10.9371 1.36198 10.9371 1.36491 10.9371 1.36486C10.9371 1.36485 10.9372 1.35986 10.94 1.35135L11.4144 1.50946C11.4725 1.33509 11.4107 1.15274 11.3346 1.03857L10.9186 1.31591ZM10.934 1.34383C10.9427 1.34165 10.946 1.3418 10.945 1.3418C10.9436 1.3418 10.9401 1.34151 10.936 1.34024C10.932 1.33901 10.9307 1.33788 10.9325 1.33909C10.9347 1.34053 10.9405 1.34469 10.9498 1.35402L11.3033 1.00046C11.2461 0.94319 11.1742 0.890418 11.083 0.862346C10.9899 0.833694 10.8982 0.837398 10.8128 0.858755L10.934 1.34383ZM6.23719 7.64113C6.28555 6.16618 6.97729 4.69778 7.913 3.53664C8.85276 2.37047 10.0045 1.55568 10.9289 1.34504L10.8179 0.857538C9.7423 1.1026 8.50164 2.00933 7.52368 3.2229C6.54167 4.44151 5.79037 6.01109 5.73746 7.62474L6.23719 7.64113ZM5.40942 4.635C5.37622 4.75772 5.24785 5.23191 5.23628 5.8256C5.22475 6.41684 5.32852 7.15376 5.78532 7.78023L6.18933 7.48564C5.82194 6.98179 5.72577 6.36936 5.73618 5.83534C5.74654 5.30377 5.86198 4.8768 5.89207 4.76558L5.40942 4.635ZM5.40821 4.67091C5.40821 4.6633 5.40856 4.657 5.40889 4.65264C5.40922 4.64813 5.40963 4.64432 5.40997 4.64146C5.41064 4.6359 5.41137 4.63149 5.41182 4.62891C5.4127 4.62385 5.41353 4.62013 5.41379 4.61899C5.41435 4.61647 5.41467 4.61535 5.41421 4.61713C5.41338 4.62034 5.41197 4.62558 5.40942 4.635L5.89207 4.76557C5.89427 4.75743 5.89659 4.74886 5.89831 4.74222C5.89912 4.73907 5.90041 4.73401 5.90163 4.72857C5.90222 4.72595 5.9033 4.72103 5.90435 4.71501C5.90464 4.71338 5.90821 4.69456 5.90821 4.67091H5.40821ZM5.44514 4.59072C5.43515 4.58573 5.43035 4.57815 5.42879 4.57374C5.42802 4.57155 5.42808 4.57041 5.42807 4.57067C5.42807 4.57083 5.42801 4.57328 5.42609 4.57806L5.89033 4.76376C5.98516 4.52669 5.89592 4.25709 5.66875 4.14351L5.44514 4.59072ZM5.42992 4.56921C5.42939 4.56974 5.42906 4.56994 5.42875 4.57009C5.42841 4.57026 5.42717 4.57081 5.42476 4.5711C5.42217 4.5714 5.41849 4.57134 5.41433 4.57025C5.40994 4.56911 5.40737 4.56743 5.40694 4.56711L5.70694 4.16711C5.49029 4.00463 5.22551 4.06651 5.07637 4.21565L5.42992 4.56921ZM1.30018 14.6562C1.20207 12.9883 1.69992 10.9847 2.49864 9.12727C3.29695 7.27078 4.38192 5.59257 5.42781 4.5713L5.07849 4.21356C3.97247 5.29355 2.85491 7.03306 2.0393 8.92975C1.22409 10.8255 0.696632 12.9105 0.801047 14.6856L1.30018 14.6562ZM4.80832 5.24457C3.94198 6.27901 3.01784 7.79542 2.33509 9.46222C1.65307 11.1273 1.20295 12.9642 1.30743 14.6359L1.80646 14.6047C1.70841 13.0358 2.13171 11.2779 2.79778 9.65175C3.46313 8.02742 4.36179 6.55648 5.19164 5.5656L4.80832 5.24457ZM6.24641 8.27449C5.25756 7.46961 5.17512 6.26453 5.24902 5.42706L4.75095 5.38311C4.67295 6.26716 4.74241 7.695 5.93077 8.66227L6.24641 8.27449ZM6.25527 8.27009C6.25264 8.2714 6.2518 8.2714 6.25233 8.27131C6.25273 8.27125 6.25259 8.27137 6.25138 8.27121C6.24826 8.27079 6.23953 8.26855 6.22727 8.26037L5.94992 8.67639C6.0766 8.76085 6.2746 8.81944 6.47888 8.7173L6.25527 8.27009ZM6.24365 8.24053C6.24365 8.25047 6.24089 8.26299 6.23524 8.2743C6.22934 8.28609 6.22465 8.28818 6.2284 8.28568L6.50575 8.70171C6.65975 8.59904 6.74365 8.41462 6.74365 8.24053H6.24365ZM10.4235 1.47784C9.41677 1.89395 8.30574 2.86963 7.48287 4.08451C6.65895 5.30093 6.09792 6.79567 6.24489 8.26541L6.74241 8.21566C6.61091 6.90059 7.11317 5.52191 7.89684 4.36491C8.68156 3.20637 9.72244 2.30863 10.6145 1.93993L10.4235 1.47784ZM12.2843 7.42674C10.7513 5.49807 10.2786 3.65276 10.7611 1.77098L10.2768 1.64679C9.74665 3.71438 10.2867 5.71717 11.8929 7.73786L12.2843 7.42674ZM12.4072 7.57416L12.2806 7.42226L11.8965 7.74235L12.0231 7.89425L12.4072 7.57416ZM12.4451 7.62222C12.4339 7.60794 12.4228 7.59378 12.4118 7.57974L12.0186 7.88866C12.0296 7.90273 12.0408 7.9169 12.052 7.93119L12.4451 7.62222ZM15.401 14.8434C15.661 11.698 13.5563 9.03611 12.4451 7.62223L12.052 7.93118C13.1837 9.3712 15.1441 11.8817 14.9027 14.8022L15.401 14.8434ZM8.24049 20.5918C11.5281 20.5918 15.0821 18.6438 15.401 14.8437L14.9028 14.8019C14.6141 18.2423 11.3833 20.0918 8.24049 20.0918V20.5918ZM1.30739 14.6352C1.43853 16.8252 2.41415 18.3249 3.7478 19.2704C5.07248 20.2096 6.73453 20.5918 8.24049 20.5918V20.0918C6.80974 20.0918 5.2566 19.7272 4.03698 18.8625C2.82632 18.0042 1.92853 16.6432 1.8065 14.6053L1.30739 14.6352Z" fill="#6F6F6F"/>
</svg>
