<svg width="24" height="20" viewBox="0 0 24 20" fill="none" xmlns="http://www.w3.org/2000/svg">
<path fill-rule="evenodd" clip-rule="evenodd" d="M17.3437 0.00224574C19.0248 0.00224574 20.6055 0.639475 21.7961 1.79631C24.2497 4.18634 24.2497 8.07316 21.7964 10.4618L12.1233 19.8768C12.0388 19.959 11.9281 20 11.8174 20C11.7066 20 11.5959 19.959 11.5114 19.8768L1.83977 10.4618C-0.613256 8.07231 -0.613256 4.18466 1.83977 1.79547C3.02865 0.637509 4.60911 0 6.2905 0C7.97189 0 9.55264 0.63779 10.7418 1.79547L11.8174 2.84395L12.8921 1.79687C14.0815 0.639475 15.6626 0.00224574 17.3437 0.00224574ZM11.8171 18.9835L21.1842 9.86638C23.3008 7.80591 23.3008 4.4533 21.1848 2.39227C20.1583 1.39404 18.7941 0.844398 17.344 0.844398C15.8938 0.844398 14.5305 1.39376 13.5048 2.39227L12.1239 3.73775C12.0426 3.81664 11.9324 3.86099 11.8177 3.86099C11.7026 3.86099 11.5925 3.81664 11.5114 3.73775L10.1299 2.39059C9.10425 1.39208 7.74092 0.842153 6.2905 0.842153C4.84008 0.842153 3.47704 1.39208 2.45165 2.39087C0.335715 4.4519 0.335715 7.80535 2.45165 9.86638L11.8171 18.9835Z" fill="#6F6F6F"/>
</svg>
