<svg width="19" height="18" viewBox="0 0 19 18" fill="none" xmlns="http://www.w3.org/2000/svg">
<path fill-rule="evenodd" clip-rule="evenodd" d="M11.1792 0.704451L17.8681 6.879C18.4159 7.38613 18.7278 8.0984 18.729 8.84487V15.3244C18.729 16.8021 17.5311 18 16.0534 18H11.3712C11.0018 18 10.7023 17.7005 10.7023 17.3311V11.3111H8.02671V17.3311C8.02671 17.7005 7.72723 18 7.35782 18H2.67557C1.19789 18 0 16.8021 0 15.3244V8.84487C0.0012001 8.0984 0.313108 7.38613 0.860864 6.879L7.54979 0.704451C8.57728 -0.234817 10.1517 -0.234817 11.1792 0.704451ZM16.0534 16.6622C16.7923 16.6622 17.3912 16.0633 17.3912 15.3244V8.84487C17.3902 8.47175 17.2341 8.11584 16.9604 7.86227L10.2715 1.68839C9.75817 1.21837 8.97082 1.21837 8.45747 1.68839L1.76855 7.86294C1.49474 8.11616 1.33867 8.47192 1.33778 8.84487V15.3244C1.33778 16.0633 1.93673 16.6622 2.67557 16.6622H6.68892V10.6422C6.68892 10.2728 6.9884 9.97329 7.35782 9.97329H11.3712C11.7406 9.97329 12.0401 10.2728 12.0401 10.6422V16.6622H16.0534Z" fill="#6F6F6F"/>
</svg>
