<svg width="15" height="21" viewBox="0 0 15 21" fill="none" xmlns="http://www.w3.org/2000/svg">
<path fill-rule="evenodd" clip-rule="evenodd" d="M10.2376 7.55801C10.2597 7.52486 10.2873 7.49171 10.3149 7.45856L10.3149 7.45855C10.3426 7.4254 10.3702 7.39226 10.3923 7.35912C11.1436 6.38674 11.5856 5.14917 11.5856 4.0221C11.5856 1.76796 9.75138 0 7.40884 0C5.0663 0 3.23204 1.76796 3.23204 4.0221C3.23204 5.14917 3.67403 6.38674 4.42541 7.35912C4.44751 7.39226 4.47514 7.42541 4.50276 7.45856L4.50276 7.45856C4.53039 7.49171 4.55801 7.52486 4.58011 7.55801C2.25967 8.1989 1 9.72376 1 12.0221C1 13.768 1.68508 15.7348 2.83425 17.3039C4.11602 19.0497 5.72928 20 7.38674 20C9.0442 20 10.6575 19.0497 11.9392 17.3039C13.0884 15.7348 13.7735 13.768 13.7735 12.0221C13.8177 9.72376 12.558 8.1989 10.2376 7.55801ZM3.85083 4.0221C3.85083 2.12155 5.41989 0.640884 7.40884 0.640884C9.39779 0.640884 10.9669 2.12155 10.9669 4.0442C10.9669 6.45304 9.0221 8.39779 7.40884 8.39779C5.79558 8.39779 3.85083 6.43094 3.85083 4.0221ZM1.64088 12.0221C1.64088 15.9779 4.8232 19.3812 7.40884 19.3812C9.99448 19.3812 13.1768 16 13.1768 12.0221C13.1768 10.4751 12.5138 8.68508 9.72928 8.0663C9.0221 8.66298 8.22652 8.99448 7.40884 8.99448C6.59116 8.99448 5.79558 8.66298 5.1105 8.0663C3.23204 8.48619 1.64088 9.56906 1.64088 12.0221Z" fill="#6F6F6F"/>
<path d="M10.3149 7.45856L10.5454 7.65062L10.5454 7.65062L10.3149 7.45856ZM10.2376 7.55801L9.98795 7.3916L9.75785 7.73675L10.1577 7.84718L10.2376 7.55801ZM10.3149 7.45855L10.5454 7.6506V7.6506L10.3149 7.45855ZM10.3923 7.35912L10.1549 7.17568L10.1485 7.18398L10.1427 7.19271L10.3923 7.35912ZM4.42541 7.35912L4.67503 7.19271L4.66921 7.18398L4.6628 7.17568L4.42541 7.35912ZM4.50276 7.45856L4.27229 7.65061L4.27229 7.65061L4.50276 7.45856ZM4.50276 7.45856L4.2723 7.65062L4.2723 7.65062L4.50276 7.45856ZM4.58011 7.55801L4.65998 7.84718L5.05983 7.73675L4.82973 7.3916L4.58011 7.55801ZM2.83425 17.3039L2.59222 17.4811L2.59243 17.4814L2.83425 17.3039ZM11.9392 17.3039L12.1811 17.4814L12.1813 17.4811L11.9392 17.3039ZM13.7735 12.0221L13.4735 12.0163V12.0221H13.7735ZM9.72928 8.0663L9.79436 7.77344L9.64935 7.74122L9.53582 7.83701L9.72928 8.0663ZM5.1105 8.0663L5.30753 7.84007L5.19312 7.74043L5.04505 7.77352L5.1105 8.0663ZM10.0845 7.26651C10.0592 7.29686 10.0206 7.34264 9.98795 7.3916L10.4872 7.72442C10.4987 7.70708 10.5154 7.68656 10.5454 7.65062L10.0845 7.26651ZM10.0845 7.26649L10.0844 7.26651L10.5454 7.65062L10.5454 7.6506L10.0845 7.26649ZM10.1427 7.19271C10.1311 7.21004 10.1144 7.23055 10.0845 7.26649L10.5454 7.6506C10.5707 7.62025 10.6092 7.57448 10.6419 7.52553L10.1427 7.19271ZM11.2856 4.0221C11.2856 5.07683 10.8695 6.25093 10.1549 7.17568L10.6297 7.54255C11.4178 6.52255 11.8856 5.22151 11.8856 4.0221H11.2856ZM7.40884 0.3C9.59639 0.3 11.2856 1.94413 11.2856 4.0221H11.8856C11.8856 1.59178 9.90638 -0.3 7.40884 -0.3V0.3ZM3.53204 4.0221C3.53204 1.94413 5.22129 0.3 7.40884 0.3V-0.3C4.9113 -0.3 2.93204 1.59178 2.93204 4.0221H3.53204ZM4.6628 7.17568C3.94822 6.25093 3.53204 5.07683 3.53204 4.0221H2.93204C2.93204 5.22151 3.39985 6.52255 4.18803 7.54255L4.6628 7.17568ZM4.73323 7.26651C4.70327 7.23056 4.68659 7.21004 4.67503 7.19271L4.1758 7.52553C4.20844 7.57448 4.247 7.62026 4.27229 7.65061L4.73323 7.26651ZM4.73323 7.26651L4.73323 7.2665L4.27229 7.65061L4.2723 7.65062L4.73323 7.26651ZM4.82973 7.3916C4.79709 7.34264 4.75852 7.29686 4.73323 7.26651L4.2723 7.65062C4.30225 7.68657 4.31894 7.70708 4.3305 7.72442L4.82973 7.3916ZM1.3 12.0221C1.3 10.93 1.59816 10.0439 2.15322 9.35707C2.70983 8.6683 3.54477 8.15519 4.65998 7.84718L4.50024 7.26884C3.29501 7.60171 2.33989 8.17148 1.68656 8.97995C1.03168 9.79032 0.7 10.8159 0.7 12.0221H1.3ZM3.07628 17.1266C1.96007 15.6025 1.3 13.6967 1.3 12.0221H0.7C0.7 13.8392 1.4101 15.8671 2.59222 17.4811L3.07628 17.1266ZM7.38674 19.7C5.85216 19.7 4.31976 18.8203 3.07608 17.1263L2.59243 17.4814C3.91228 19.2791 5.6064 20.3 7.38674 20.3V19.7ZM11.6974 17.1263C10.4537 18.8203 8.92132 19.7 7.38674 19.7V20.3C9.16708 20.3 10.8612 19.2791 12.1811 17.4814L11.6974 17.1263ZM13.4735 12.0221C13.4735 13.6967 12.8134 15.6025 11.6972 17.1266L12.1813 17.4811C13.3634 15.8671 14.0735 13.8392 14.0735 12.0221H13.4735ZM10.1577 7.84718C11.2732 8.15527 12.1074 8.66829 12.6581 9.35602C13.2069 10.0414 13.4945 10.9257 13.4735 12.0163L14.0734 12.0279C14.0966 10.8202 13.7765 9.79281 13.1264 8.98099C12.4782 8.17149 11.5224 7.60164 10.3174 7.26884L10.1577 7.84718ZM7.40884 0.340884C5.26942 0.340884 3.55083 1.94105 3.55083 4.0221H4.15083C4.15083 2.30205 5.57036 0.940884 7.40884 0.940884V0.340884ZM11.2669 4.0442C11.2669 1.9423 9.54958 0.340884 7.40884 0.340884V0.940884C9.246 0.940884 10.6669 2.3008 10.6669 4.0442H11.2669ZM7.40884 8.69779C8.32925 8.69779 9.29466 8.15045 10.0187 7.32169C10.7486 6.48633 11.2669 5.32952 11.2669 4.0442H10.6669C10.6669 5.16772 10.2127 6.1877 9.5669 6.92693C8.91528 7.67275 8.10168 8.09779 7.40884 8.09779V8.69779ZM3.55083 4.0221C3.55083 5.3072 4.06893 6.46922 4.79826 7.30986C5.52169 8.1437 6.48721 8.69779 7.40884 8.69779V8.09779C6.71721 8.09779 5.90372 7.66846 5.25146 6.91666C4.60511 6.17166 4.15083 5.14584 4.15083 4.0221H3.55083ZM7.40884 19.0812C6.23876 19.0812 4.87338 18.3009 3.78591 16.9933C2.70566 15.6943 1.94088 13.9207 1.94088 12.0221H1.34088C1.34088 14.0793 2.16727 15.9853 3.32459 17.3769C4.47468 18.7599 5.99329 19.6812 7.40884 19.6812V19.0812ZM12.8768 12.0221C12.8768 13.932 12.1118 15.7055 11.032 17.0013C9.94495 18.3057 8.57957 19.0812 7.40884 19.0812V19.6812C8.82375 19.6812 10.3423 18.7661 11.4929 17.3854C12.6506 15.9962 13.4768 14.0901 13.4768 12.0221H12.8768ZM9.6642 8.35915C10.9986 8.6557 11.7903 9.22356 12.2532 9.87068C12.7196 10.5225 12.8768 11.289 12.8768 12.0221H13.4768C13.4768 11.2082 13.3025 10.3062 12.7412 9.52158C12.1765 8.73224 11.2444 8.09568 9.79436 7.77344L9.6642 8.35915ZM7.40884 9.29448C8.31104 9.29448 9.17293 8.92824 9.92274 8.29559L9.53582 7.83701C8.87127 8.39773 8.142 8.69448 7.40884 8.69448V9.29448ZM4.91346 8.29252C5.64368 8.92852 6.50707 9.29448 7.40884 9.29448V8.69448C6.67525 8.69448 5.94748 8.39745 5.30753 7.84007L4.91346 8.29252ZM1.94088 12.0221C1.94088 10.8672 2.31242 10.0624 2.88294 9.49436C3.46113 8.91869 4.26852 8.56191 5.17594 8.35907L5.04505 7.77352C4.07402 7.99058 3.1466 8.38518 2.4596 9.06917C1.76493 9.76081 1.34088 10.7239 1.34088 12.0221H1.94088Z" fill="#979797"/>
</svg>
