<svg width="19" height="19" viewBox="0 0 19 19" fill="none" xmlns="http://www.w3.org/2000/svg">
<path fill-rule="evenodd" clip-rule="evenodd" d="M13.3712 2.02441C10.4639 -0.755167 5.95605 -0.661233 3.15903 2.23721C0.3615 5.13405 0.271292 9.80156 2.95465 12.812C5.63801 15.8225 10.1377 16.1019 13.1492 13.4451L17.5475 18L18.3793 17.1385L13.9813 12.5839C16.5479 9.46514 16.2786 4.80399 13.3712 2.02441ZM11.8129 12.9696C9.35555 14.67 6.0806 14.3359 3.99087 12.1716C2.82984 10.968 2.17733 9.33646 2.17655 7.63514C2.17655 4.5744 4.26422 1.93989 7.16281 1.34278C10.0614 0.745677 12.9636 2.35227 14.0946 5.18004C15.2255 8.0078 14.2702 11.2692 11.8129 12.9696Z" fill="#6F6F6F"/>
<path d="M3.15903 2.23721L3.26697 2.34137L3.26693 2.34141L3.15903 2.23721ZM13.1492 13.4451L13.0499 13.3326L13.1575 13.2377L13.2571 13.3409L13.1492 13.4451ZM17.5475 18L17.6554 18.1042L17.5475 18.2159L17.4396 18.1042L17.5475 18ZM18.3793 17.1385L18.4872 17.0343L18.5878 17.1385L18.4872 17.2427L18.3793 17.1385ZM13.9813 12.5839L13.8734 12.6881L13.7805 12.5919L13.8655 12.4886L13.9813 12.5839ZM3.99087 12.1716L3.88296 12.2758L3.88291 12.2757L3.99087 12.1716ZM11.8129 12.9696L11.8982 13.0929L11.8129 12.9696ZM2.17655 7.63514L2.02655 7.63521V7.63514H2.17655ZM7.16281 1.34278L7.19307 1.4897L7.16281 1.34278ZM3.05109 2.13305C5.90531 -0.824667 10.5077 -0.920785 13.4749 1.91599L13.2676 2.13283C10.4201 -0.589549 6.00679 -0.497798 3.26697 2.34137L3.05109 2.13305ZM2.84268 12.9118C0.107206 9.84291 0.198952 5.08643 3.05113 2.13301L3.26693 2.34141C0.524048 5.18166 0.435377 9.76021 3.06663 12.7122L2.84268 12.9118ZM13.2484 13.5576C10.1746 16.2694 5.58057 15.9834 2.84268 12.9118L3.06663 12.7122C5.69545 15.6615 10.1008 15.9344 13.0499 13.3326L13.2484 13.5576ZM17.4396 18.1042L13.0413 13.5493L13.2571 13.3409L17.6554 17.8958L17.4396 18.1042ZM18.4872 17.2427L17.6554 18.1042L17.4396 17.8958L18.2714 17.0343L18.4872 17.2427ZM14.0892 12.4797L18.4872 17.0343L18.2714 17.2427L13.8734 12.6881L14.0892 12.4797ZM13.4749 1.91599C16.4394 4.75019 16.7132 9.50024 14.0971 12.6792L13.8655 12.4886C16.3825 9.43005 16.1178 4.85779 13.2676 2.13283L13.4749 1.91599ZM4.09878 12.0674C6.138 14.1794 9.33123 14.5044 11.7275 12.8462L11.8982 13.0929C9.37986 14.8356 6.0232 14.4924 3.88296 12.2758L4.09878 12.0674ZM2.32655 7.63507C2.32731 9.29832 2.96527 10.8923 4.09883 12.0674L3.88291 12.2757C2.69441 11.0436 2.02735 9.3746 2.02655 7.63521L2.32655 7.63507ZM7.19307 1.4897C4.36763 2.07174 2.32655 4.64201 2.32655 7.63514H2.02655C2.02655 4.50679 4.1608 1.80805 7.13254 1.19587L7.19307 1.4897ZM13.9553 5.23574C12.8501 2.47249 10.0175 0.907874 7.19307 1.4897L7.13254 1.19587C10.1053 0.58348 13.0771 2.23205 14.2338 5.12433L13.9553 5.23574ZM11.7275 12.8462C14.1257 11.1867 15.061 8.00035 13.9553 5.23574L14.2338 5.12433C15.39 8.01525 14.4147 11.3516 11.8982 13.0929L11.7275 12.8462Z" fill="#979797"/>
</svg>
