<svg width="20" height="20" viewBox="0 0 20 20" fill="none" xmlns="http://www.w3.org/2000/svg">
<path fill-rule="evenodd" clip-rule="evenodd" d="M5.56456 2.24935C8.79493 -0.839074 13.8036 -0.734703 16.9114 2.48579C20.0198 5.70449 20.12 10.8906 17.1385 14.2356C14.157 17.5805 9.1574 17.891 5.8113 14.939L0.92427 20L0 19.0428L4.88669 13.9821C2.03497 10.5168 2.33419 5.33777 5.56456 2.24935ZM7.29606 14.4106C10.0264 16.3 13.6653 15.9288 15.9872 13.524C17.2772 12.1866 18.0022 10.3738 18.0031 8.48349C18.0031 5.08267 15.6835 2.15544 12.4628 1.49198C9.24214 0.82853 6.01746 2.61364 4.76085 5.7556C3.50424 8.89756 4.56569 12.5213 7.29606 14.4106Z" fill="#3B8F8D"/>
</svg>
