<svg width="20" height="20" viewBox="0 0 20 20" fill="none" xmlns="http://www.w3.org/2000/svg">
<path fill-rule="evenodd" clip-rule="evenodd" d="M9.72222 0.277832C15.0851 0.277832 19.4444 4.63722 19.4444 10.0001C19.4444 15.3629 15.0851 19.7223 9.72222 19.7223C4.35939 19.7223 0 15.3629 0 10.0001C0 4.63722 4.35939 0.277832 9.72222 0.277832ZM9.72222 1.38894C4.95989 1.38894 1.11111 5.23772 1.11111 10.0001C1.11111 14.7624 4.95989 18.6112 9.72222 18.6112C14.4846 18.6112 18.3333 14.7624 18.3333 10.0001C18.3333 5.23772 14.4846 1.38894 9.72222 1.38894ZM10.2778 4.16672C10.2778 3.85989 10.0291 3.61117 9.72222 3.61117C9.41539 3.61117 9.16667 3.85989 9.16667 4.16672V9.4445H4.44444C4.13761 9.4445 3.88889 9.69323 3.88889 10.0001C3.88889 10.3069 4.13761 10.5556 4.44444 10.5556H9.72222C10.0291 10.5556 10.2778 10.3069 10.2778 10.0001V4.16672Z" fill="#6F6F6F"/>
</svg>
